HIERARCHY
ROOT Hips
{
  OFFSET 24.7126 85.8577 186.189
  CHANNELS 6 Xposition Yposition Zposition Zrotation Xrotation Yrotation
  JOINT ToSpine
  {
    OFFSET -2.69724 7.43032 -0.144315
    CHANNELS 3 Zrotation Xrotation Yrotation
    JOINT Spine
    {
      OFFSET -0.0310711 10.7595 1.96963
      CHANNELS 3 Zrotation Xrotation Yrotation
      JOINT Spine1
      {
        OFFSET 13.1342 3.43533 0.764692
        CHANNELS 3 Zrotation Xrotation Yrotation
        JOINT Neck
        {
          OFFSET 29.8703 7.82586 -0.130764
          CHANNELS 3 Zrotation Xrotation Yrotation
          JOINT Head
          {
            OFFSET 9.52751 0.295786 -0.907742
            CHANNELS 3 Zrotation Xrotation Yrotation
            End Site
            {
              OFFSET 16.4037 0.713936 2.7358
            }
          }
        }
        JOINT LeftShoulder
        {
          OFFSET 27.5574 4.95586 2.47156
          CHANNELS 3 Zrotation Xrotation Yrotation
          JOINT LeftArm
          {
            OFFSET 1.20734 -0.998971 20.1238
            CHANNELS 3 Zrotation Xrotation Yrotation
            JOINT LeftForeArm
            {
              OFFSET 26.8049 -0.0536703 -0.155908
              CHANNELS 3 Zrotation Xrotation Yrotation
              JOINT LeftHand
              {
                OFFSET 26.6817 0 0.320147
                CHANNELS 3 Zrotation Xrotation Yrotation
                End Site
                {
                  OFFSET 18.6119 0 0.382219
                }
              }
            }
          }
        }
        JOINT RightShoulder
        {
          OFFSET 27.5927 4.71444 -2.65209
          CHANNELS 3 Zrotation Xrotation Yrotation
          JOINT RightArm
          {
            OFFSET 2.83739 -1.17114 -18.7564
            CHANNELS 3 Zrotation Xrotation Yrotation
            JOINT RightForeArm
            {
              OFFSET 28.839 -0.0548439 1.22491
              CHANNELS 3 Zrotation Xrotation Yrotation
              JOINT RightHand
              {
                OFFSET 26.5114 0 -0.101894
                CHANNELS 3 Zrotation Xrotation Yrotation
                End Site
                {
                  OFFSET 18.2168 0 0
                }
              }
            }
          }
        }
      }
    }
  }
  JOINT LeftUpLeg
  {
    OFFSET -4.76168 -1.9167 -10.2353
    CHANNELS 3 Zrotation Xrotation Yrotation
    JOINT LeftLeg
    {
      OFFSET 2.55951 -42.0585 -8.02213
      CHANNELS 3 Zrotation Xrotation Yrotation
      JOINT LeftFoot
      {
        OFFSET 3.16357 -42.5282 -3.95426
        CHANNELS 3 Zrotation Xrotation Yrotation
        JOINT LeftToeBase
        {
          OFFSET 0.346054 -6.02161 12.8035
          CHANNELS 3 Zrotation Xrotation Yrotation
          End Site
          {
            OFFSET 0.134235 -1.35082 5.13018
          }
        }
      }
    }
  }
  JOINT RightUpLeg
  {
    OFFSET -4.94151 -1.41743 10.6446
    CHANNELS 3 Zrotation Xrotation Yrotation
    JOINT RightLeg
    {
      OFFSET -2.56294 -42.0364 -7.94377
      CHANNELS 3 Zrotation Xrotation Yrotation
      JOINT RightFoot
      {
        OFFSET -3.0952 -42.555 -4.02241
        CHANNELS 3 Zrotation Xrotation Yrotation
        JOINT RightToeBase
        {
          OFFSET -0.0828122 -6.13587 12.8035
          CHANNELS 3 Zrotation Xrotation Yrotation
          End Site
          {
            OFFSET -0.131328 -1.35082 5.13018
          }
        }
      }
    }
  }
}
MOTION
Frames:	8
Frame Time:	0.0333333
24.8245 83.3863 187.581 -50.1754 -43.627 -143.714 -70.1915 0 88.8779 89.3212 57.0558 -14.4028 5.32178 3.66999 8.02958 -154.704 6.83659 -178.731 -151.837 44.0969 176.446 -0.857141 -21.8809 -26.1857 -45.9068 36.6382 -112.27 0.831393 -0.115334 -96.1935 0.420957 0.000575795 0.35866 -0.84694 2.99595 44.1647 -50.1398 -40.5859 98.7826 -14.4604 -13.0938 131.301 0.58676 0.000329834 0.0646656 -69.6884 5.04445 109.784 -1.21788 43.9548 6.39947 -0.719906 -18.8969 -1.64024 10.9067 -20.468 36.2866 3.04945 21.8376 87.156 12.6375 71.503 5.79375 -4.20556 0.612019 0.66996 -0.77421 -2.29785 7.3194 
24.6441 82.8323 187.747 -49.2515 -44.727 -142.861 -70.1915 0 88.8779 91.3961 58.1451 -14.4159 4.90056 5.0553 7.52072 -152.972 8.98655 -178.61 -149.473 45.7236 174.726 -0.66576 -21.2608 -25.3214 -45.8447 37.7877 -108.688 2.16234 -0.281713 -96.3118 0.420957 0.000575795 0.35866 -0.925249 3.14775 45.0283 -52.2966 -40.623 95.3745 -13.7916 -12.346 131.069 0.58676 0.000329834 0.0646656 -68.971 5.44413 108.111 -1.74518 46.4833 4.35586 -0.401732 -18.0771 -1.55495 12.7402 -22.2129 37.1763 2.45963 20.1485 87.5969 13.7882 71.9583 8.41237 -1.76469 -3.18767 0.584051 0.0257436 -2.39069 1.94144 
24.3203 82.4864 187.704 -47.1594 -46.5059 -140.552 -70.1915 0 88.8779 92.1299 58.7707 -14.0362 5.06091 5.46078 8.41344 -152.655 10.2114 -177.342 -148.368 46.6267 173.587 -0.439563 -20.3517 -24.4375 -50.4495 39.6405 -102.061 -1.1282 0.156721 -98.1713 0.420957 0.000575795 0.35866 -0.929738 3.24315 44.3194 -52.7736 -39.3148 95.863 -12.8413 -11.1446 130.322 0.58676 0.000329834 0.0646656 -68.2318 6.5087 107.284 -1.91647 47.5133 3.98056 -0.873121 -18.6249 -1.61979 13.267 -22.7685 36.5786 2.63758 18.0538 86.6778 14.0891 72.4922 6.63446 -0.124738 -6.33838 0.647792 -0.960092 1.78629 4.19645 
24.0328 82.4604 187.451 -45.5797 -48.883 -138.94 -70.1915 0 88.8779 94.5915 59.0331 -16.1153 4.23232 5.77648 8.92979 -152.332 11.2826 -176.751 -147.817 47.6429 173.579 -0.186449 -19.2884 -23.3108 -57.9121 40.267 -93.8436 -1.54784 0.291805 -100.802 0.420957 0.000575795 0.35866 -1.01675 3.55852 44.049 -54.8577 -37.238 96.1644 -11.8514 -9.93732 129.477 0.58676 0.000329834 0.0646656 -68.9026 6.76608 106.961 -1.71959 46.3255 4.52308 -0.541252 -19.2842 -1.66607 13.2302 -22.8306 35.3894 2.32752 16.8651 87.054 14.8833 73.2347 6.15377 -2.66024 -4.89324 0.755008 0.242443 -2.52672 0.238412 
23.288 82.4065 187.142 -43.1356 -51.1174 -136.029 -70.1915 0 88.8779 94.9933 59.8575 -15.7601 4.12905 6.61715 9.23214 -151.253 12.7697 -176.749 -146.776 48.9704 173.271 0.105567 -17.9044 -21.8559 -65.674 38.4504 -88.8838 1.41172 -0.365106 -102.693 0.420957 0.000575795 0.35866 -1.03841 3.64837 43.9146 -59.451 -35.8324 94.8891 -12.2248 -10.0051 128.757 0.58676 0.000329834 0.0646656 -69.2218 8.41894 107.495 -1.52555 45.1187 5.04985 -0.454752 -20.4112 -1.76263 12.4685 -22.2153 33.199 1.82086 16.7522 87.7276 14.405 73.2398 4.38528 -2.47792 -7.37759 0.879393 0.317812 -0.560357 -1.65141 
22.5575 82.819 186.602 -36.9834 -54.5385 -129.415 -70.1915 0 88.8779 92.929 60.5809 -13.2409 4.94056 7.0521 9.87593 -149.988 14.7027 -176.942 -146.315 50.8489 172.874 0.358957 -16.7114 -20.0828 -71.4368 36.2838 -87.6693 -0.161707 0.0118268 -104.842 0.420957 0.000575795 0.35866 -0.940177 3.42575 43.0975 -64.8436 -35.303 93.2367 -11.4835 -9.31942 128.598 0.58676 0.000329834 0.0646656 -68.102 10.355 106.678 -1.44226 43.8861 4.94739 -0.651552 -21.037 -1.8294 11.5167 -21.3218 31.4802 0.954258 14.6453 88.2387 12.9677 72.3356 3.31279 -2.94384 -9.97015 1.05103 0.66982 -0.167134 -4.11567 
21.8957 83.3943 185.926 -28.472 -58.32 -120.464 -70.1915 0 88.8779 91.4696 61.0475 -11.0425 5.32683 7.49249 9.80806 -147.081 16.8443 -177.569 -145.263 52.8677 172.881 0.565419 -15.521 -18.3688 -77.0981 34.645 -88.4415 -0.840854 0.233645 -107.196 0.420957 0.000575795 0.35866 -0.982876 3.55149 43.2373 -71.3058 -33.818 90.5217 -11.5768 -9.39087 128.587 0.58676 0.000329834 0.0646656 -66.7757 12.001 105.481 -1.26564 42.3756 5.29144 -0.424272 -20.5959 -1.77734 11.1803 -21.0726 29.0939 -0.542642 11.4215 88.59 11.187 71.0301 1.91574 -3.30816 -12.4622 1.18739 1.13725 -1.79865 -6.21302 
21.4904 84.2277 185.125 -17.8497 -61.287 -109.617 -70.1915 0 88.8779 91.2848 61.7497 -9.97961 5.10855 8.18746 9.91164 -145.158 18.746 -178.186 -143.84 54.4535 171.371 0.636811 -15.1781 -17.4871 -82.5117 32.8382 -90.8376 0.725082 -0.290731 -108.337 0.420957 0.000575795 0.35866 -0.961112 3.5483 42.6863 -77.9106 -31.9853 88.597 -10.3473 -8.19799 128.066 0.58676 0.000329834 0.0646656 -64.9555 13.2629 105.188 -1.21645 41.1272 5.06934 -0.777981 -20.4642 -1.78047 9.7856 -19.5749 26.8562 -2.45428 7.27684 88.1461 9.29758 68.979 1.37124 -4.77737 -14.4632 1.29529 1.99106 -6.90528 -11.3808 
